<svg width="48" height="56" viewBox="0 0 48 56" fill="none" xmlns="http://www.w3.org/2000/svg">
<path d="M45.3083 24.3118L6.54186 0.648124C5.89612 0.238915 5.15037 0.014967 4.38602 0.000724425C3.62167 -0.0135181 2.86809 0.182493 2.20755 0.56736C1.53725 0.935122 0.978459 1.47676 0.589981 2.13527C0.201504 2.79379 -0.0022976 3.54484 1.95403e-05 4.3094V51.6906C-0.0022976 52.4552 0.201504 53.2062 0.589981 53.8647C0.978459 54.5232 1.53725 55.0649 2.20755 55.4326C2.86809 55.8175 3.62167 56.0135 4.38602 55.9993C5.15037 55.985 5.89612 55.7611 6.54186 55.3519L45.3083 31.6882C45.9437 31.3049 46.4693 30.7639 46.8341 30.1177C47.1989 29.4715 47.3907 28.7421 47.3907 28C47.3907 27.2579 47.1989 26.5285 46.8341 25.8823C46.4693 25.2361 45.9437 24.6951 45.3083 24.3118Z" fill="#BD8737"/>
</svg>
